<?xml version="1.0" encoding="UTF-8" standalone="no" ?>
<!DOCTYPE svg PUBLIC "-//W3C//DTD SVG 1.1//EN" "http://www.w3.org/Graphics/SVG/1.1/DTD/svg11.dtd">
<svg xmlns="http://www.w3.org/2000/svg" xmlns:xlink="http://www.w3.org/1999/xlink" version="1.1" width="513.35602" height="108" viewBox="-6.828071680392043 -13.570618343952468 513.35602 108" xml:space="preserve">
<defs>
</defs>
<g transform="matrix(3.66 0 0 3.66 34.02 33.9)" id="OLVOzjDDjX0LdTQnu_-pB"  >
<path style="stroke: none; stroke-width: 1; stroke-dasharray: none; stroke-linecap: butt; stroke-dashoffset: 0; stroke-linejoin: miter; stroke-miterlimit: 4; fill: rgb(255,255,255); fill-rule: nonzero; opacity: 1;" vector-effect="non-scaling-stroke"  transform=" translate(-85.26, -33.22)" d="M 88.608 39.432 C 88.11 39.565000000000005 87.528 39.632000000000005 86.861 39.632000000000005 C 86.11800000000001 39.632000000000005 85.431 39.499 84.801 39.232000000000006 C 84.17 38.964000000000006 83.622 38.56400000000001 83.153 38.03000000000001 C 82.686 37.49500000000001 82.319 36.827000000000005 82.052 36.025000000000006 C 81.784 35.22500000000001 81.65 34.290000000000006 81.65 33.221000000000004 C 81.65 32.033 81.79100000000001 31.031000000000002 82.07300000000001 30.215000000000003 C 82.35400000000001 29.400000000000002 82.73 28.738000000000003 83.197 28.234 C 83.665 27.729000000000003 84.19500000000001 27.365000000000002 84.789 27.142000000000003 C 85.382 26.92 85.983 26.808000000000003 86.593 26.808000000000003 C 87.913 26.808000000000003 88.931 26.977000000000004 89.64200000000001 27.320000000000004 L 90.60000000000001 25.851000000000003 C 89.85700000000001 25.584000000000003 89.20500000000001 25.401000000000003 88.641 25.306 C 88.07600000000001 25.209 87.35000000000001 25.161 86.458 25.161 C 85.626 25.161 84.81 25.308 84.01 25.606 C 83.208 25.903000000000002 82.485 26.374000000000002 81.839 27.019000000000002 C 81.192 27.664 80.673 28.497000000000003 80.28 29.512 C 79.887 30.53 79.69 31.766000000000002 79.69 33.22 C 79.69 34.614 79.868 35.821 80.225 36.836999999999996 C 80.58099999999999 37.852999999999994 81.06299999999999 38.68899999999999 81.672 39.340999999999994 C 82.28099999999999 39.995999999999995 82.994 40.480999999999995 83.809 40.8 C 84.625 41.117999999999995 85.502 41.278 86.437 41.278 C 87.208 41.278 87.93599999999999 41.211 88.62 41.077999999999996 C 89.301 40.94499999999999 90.036 40.574 90.824 39.964 L 89.866 38.918 C 89.524 39.129 89.105 39.299 88.608 39.432 z" stroke-linecap="round" />
</g>
<g transform="matrix(3.66 0 0 3.66 287.7 32.4)" id="YfQ2ow1G1pJBw8j39mHaZ"  >
<path style="stroke: none; stroke-width: 1; stroke-dasharray: none; stroke-linecap: butt; stroke-dashoffset: 0; stroke-linejoin: miter; stroke-miterlimit: 4; fill: rgb(255,255,255); fill-rule: nonzero; opacity: 1;" vector-effect="non-scaling-stroke"  transform=" translate(-154.57, -32.81)" d="M 157.916 39.019 C 157.418 39.152 156.837 39.22 156.16899999999998 39.22 C 155.42499999999998 39.22 154.73899999999998 39.086999999999996 154.10999999999999 38.82 C 153.47699999999998 38.552 152.92999999999998 38.152 152.462 37.617 C 151.994 37.083 151.62699999999998 36.415 151.35999999999999 35.613 C 151.093 34.812 150.95999999999998 33.877 150.95999999999998 32.808 C 150.95999999999998 31.621 151.09999999999997 30.618 151.38199999999998 29.802 C 151.66299999999998 28.986 152.039 28.325 152.50599999999997 27.82 C 152.97299999999998 27.317 153.503 26.951 154.09799999999998 26.729 C 154.69099999999997 26.506 155.29199999999997 26.395 155.902 26.395 C 157.22299999999998 26.395 158.23899999999998 26.565 158.952 26.907 L 159.909 25.437 C 159.166 25.17 158.513 24.989 157.95 24.892 C 157.386 24.794 156.659 24.747 155.768 24.747 C 154.936 24.747 154.12 24.895 153.318 25.192 C 152.51600000000002 25.49 151.793 25.96 151.14600000000002 26.606 C 150.502 27.251 149.98100000000002 28.083000000000002 149.58800000000002 29.099 C 149.19600000000003 30.116 148.99900000000002 31.353 148.99900000000002 32.805 C 148.99900000000002 34.2 149.17700000000002 35.407 149.53400000000002 36.423 C 149.89100000000002 37.440000000000005 150.372 38.275 150.98000000000002 38.928000000000004 C 151.58900000000003 39.58200000000001 152.30100000000002 40.068000000000005 153.11800000000002 40.386 C 153.93400000000003 40.704 154.81000000000003 40.864000000000004 155.74600000000004 40.864000000000004 C 156.51700000000002 40.864000000000004 157.24600000000004 40.797000000000004 157.92900000000003 40.663000000000004 C 158.61100000000002 40.53 159.34600000000003 40.158 160.13300000000004 39.550000000000004 L 159.17500000000004 38.504000000000005 C 158.833 38.715 158.414 38.885 157.916 39.019 z" stroke-linecap="round" />
</g>
<g transform="matrix(3.66 0 0 3.66 72.97 42.07)" id="Inas3e0Qb0_EbrNLKWiuk"  >
<path style="stroke: none; stroke-width: 1; stroke-dasharray: none; stroke-linecap: butt; stroke-dashoffset: 0; stroke-linejoin: miter; stroke-miterlimit: 4; fill: rgb(255,255,255); fill-rule: nonzero; opacity: 1;" vector-effect="non-scaling-stroke"  transform=" translate(-95.9, -35.45)" d="M 99.92 39.732 C 99.72 39.22 99.619 38.689 99.619 38.14 C 99.619 37.383 99.642 36.582 99.68599999999999 35.735 C 99.732 34.889 99.75299999999999 34.021 99.75299999999999 33.13 C 99.75299999999999 32.730000000000004 99.71199999999999 32.329 99.63099999999999 31.928000000000004 C 99.54999999999998 31.528000000000006 99.38599999999998 31.160000000000004 99.14099999999999 30.827000000000005 C 98.89699999999999 30.493000000000006 98.53999999999999 30.222000000000005 98.073 30.015000000000004 C 97.60499999999999 29.807000000000006 96.985 29.703000000000003 96.214 29.703000000000003 C 95.398 29.703000000000003 94.614 29.784000000000002 93.865 29.947000000000003 C 93.116 30.111000000000004 92.458 30.363000000000003 91.895 30.704000000000004 L 92.452 32.041000000000004 C 92.66 31.922000000000004 92.89999999999999 31.815000000000005 93.175 31.719000000000005 C 93.45 31.623000000000005 93.74 31.541000000000004 94.044 31.474000000000004 C 94.348 31.407000000000004 94.645 31.354000000000003 94.935 31.319000000000003 C 95.223 31.282000000000004 95.495 31.263 95.747 31.263 C 96.608 31.263 97.202 31.426000000000002 97.528 31.752000000000002 C 97.854 32.079 98.018 32.650000000000006 98.018 33.466 C 98.018 33.823 97.996 34.223 97.95100000000001 34.668 C 97.74300000000001 34.638999999999996 97.539 34.624 97.33900000000001 34.624 C 97.13900000000001 34.624 96.93400000000001 34.624 96.72600000000001 34.624 C 95.70200000000001 34.624 94.73000000000002 34.68 93.81000000000002 34.791000000000004 C 92.88900000000001 34.903000000000006 92.17600000000002 35.306000000000004 91.67200000000001 36.00300000000001 C 91.16700000000002 36.702000000000005 90.915 37.37700000000001 90.915 38.03000000000001 C 90.915 38.519000000000005 90.99900000000001 38.95700000000001 91.171 39.34300000000001 C 91.34200000000001 39.73000000000001 91.57600000000001 40.06000000000001 91.873 40.33400000000001 C 92.16900000000001 40.60900000000001 92.52300000000001 40.82000000000001 92.93 40.96800000000001 C 93.33900000000001 41.116000000000014 93.78 41.19100000000001 94.25500000000001 41.19100000000001 C 94.73 41.19100000000001 95.20500000000001 41.13800000000001 95.67900000000002 41.03500000000001 C 96.15500000000002 40.93200000000001 96.53200000000001 40.80100000000001 96.81500000000001 40.64600000000001 C 97.09600000000002 40.49000000000001 97.33800000000001 40.31100000000001 97.53800000000001 40.11100000000001 C 97.73800000000001 39.91100000000001 97.90500000000002 39.70700000000001 98.03900000000002 39.49900000000001 L 98.15000000000002 39.49900000000001 C 98.46200000000002 40.537000000000006 98.84800000000001 41.05700000000001 99.30800000000002 41.05700000000001 L 100.88900000000002 41.05700000000001 C 100.443 40.687 100.12 40.245 99.92 39.732 z M 97.949 37.873 C 97.875 38.065999999999995 97.76 38.266999999999996 97.604 38.474999999999994 C 97.449 38.68299999999999 97.252 38.87199999999999 97.014 39.041999999999994 C 96.776 39.211999999999996 96.443 39.35399999999999 96.012 39.464999999999996 C 95.581 39.577 95.159 39.632 94.744 39.632 C 94.164 39.632 93.688 39.464999999999996 93.318 39.131 C 92.947 38.796 92.761 38.37 92.761 37.851 C 92.761 37.48 92.90599999999999 37.102 93.195 36.714999999999996 C 93.485 36.32899999999999 93.97099999999999 36.11 94.654 36.059 C 95.337 36.007 96.012 35.980999999999995 96.67999999999999 35.980999999999995 C 96.88799999999999 35.980999999999995 97.09899999999999 35.98499999999999 97.315 35.992 C 97.529 35.998999999999995 97.742 36.010999999999996 97.949 36.025 L 97.949 37.873 z" stroke-linecap="round" />
</g>
<g transform="matrix(3.66 0 0 3.66 106.46 42.03)" id="4-vxhvAlyHX2TKHKYR4pu"  >
<path style="stroke: none; stroke-width: 1; stroke-dasharray: none; stroke-linecap: butt; stroke-dashoffset: 0; stroke-linejoin: miter; stroke-miterlimit: 4; fill: rgb(255,255,255); fill-rule: nonzero; opacity: 1;" vector-effect="non-scaling-stroke"  transform=" translate(-105.05, -35.45)" d="M 107.424 35.29 C 107.03 35.022999999999996 106.60000000000001 34.809 106.132 34.644 C 105.665 34.481 105.23400000000001 34.314 104.84100000000001 34.143 C 104.44800000000001 33.972 104.11800000000001 33.778 103.85100000000001 33.564 C 103.58400000000002 33.349 103.45000000000002 33.047 103.45000000000002 32.662 C 103.45000000000002 32.113 103.60300000000002 31.727 103.90700000000001 31.503 C 104.21100000000001 31.281 104.69000000000001 31.169 105.34200000000001 31.169 C 105.89100000000002 31.169 106.40800000000002 31.233 106.88900000000001 31.359 C 107.37200000000001 31.484 107.784 31.630000000000003 108.12500000000001 31.793000000000003 L 108.54700000000001 30.324 C 108.147 30.131 107.67500000000001 29.963 107.13400000000001 29.823 C 106.59200000000001 29.682000000000002 105.92000000000002 29.612000000000002 105.11900000000001 29.612000000000002 C 104.03600000000002 29.612000000000002 103.18900000000001 29.861 102.58100000000002 30.358 C 101.97200000000002 30.856 101.66700000000002 31.637 101.66700000000002 32.706 C 101.66700000000002 33.36000000000001 101.80000000000001 33.879000000000005 102.06800000000001 34.265 C 102.33500000000001 34.651 102.66400000000002 34.965 103.058 35.212 C 103.45 35.457 103.882 35.657000000000004 104.349 35.813 C 104.81700000000001 35.969 105.248 36.132000000000005 105.641 36.302 C 106.034 36.473 106.364 36.685 106.631 36.936 C 106.898 37.189 107.031 37.538 107.031 37.983 C 107.031 38.638 106.82300000000001 39.087999999999994 106.40700000000001 39.340999999999994 C 105.99300000000001 39.593999999999994 105.46400000000001 39.71999999999999 104.82600000000001 39.71999999999999 C 104.26200000000001 39.71999999999999 103.706 39.63899999999999 103.156 39.474999999999994 C 102.607 39.312 102.162 39.13399999999999 101.82000000000001 38.940999999999995 L 101.28500000000001 40.455 C 101.68700000000001 40.678 102.18400000000001 40.870999999999995 102.77700000000002 41.034 C 103.37000000000002 41.198 104.09100000000001 41.278999999999996 104.93700000000001 41.278999999999996 C 105.59000000000002 41.278999999999996 106.15800000000002 41.193999999999996 106.641 41.022999999999996 C 107.123 40.852999999999994 107.527 40.61899999999999 107.85300000000001 40.32299999999999 C 108.179 40.025999999999996 108.421 39.669999999999995 108.57600000000001 39.25399999999999 C 108.73200000000001 38.83899999999999 108.81 38.392999999999994 108.81 37.91799999999999 C 108.81 37.24999999999999 108.677 36.71099999999999 108.41 36.30299999999999 C 108.147 35.895 107.817 35.557 107.424 35.29 z" stroke-linecap="round" />
</g>
<g transform="matrix(3.66 0 0 3.66 141.37 42.07)" id="jEhuLO6rNEne6FyBLA2d3"  >
<path style="stroke: none; stroke-width: 1; stroke-dasharray: none; stroke-linecap: butt; stroke-dashoffset: 0; stroke-linejoin: miter; stroke-miterlimit: 4; fill: rgb(255,255,255); fill-rule: nonzero; opacity: 1;" vector-effect="non-scaling-stroke"  transform=" translate(-114.59, -35.45)" d="M 118.61 39.732 C 118.411 39.22 118.31 38.689 118.31 38.14 C 118.31 37.383 118.33200000000001 36.582 118.377 35.735 C 118.422 34.889 118.44399999999999 34.021 118.44399999999999 33.13 C 118.44399999999999 32.730000000000004 118.40399999999998 32.329 118.32199999999999 31.928000000000004 C 118.24 31.528000000000006 118.07699999999998 31.160000000000004 117.832 30.827000000000005 C 117.58699999999999 30.493000000000006 117.231 30.222000000000005 116.76299999999999 30.015000000000004 C 116.29499999999999 29.808000000000003 115.675 29.703000000000003 114.904 29.703000000000003 C 114.088 29.703000000000003 113.304 29.784000000000002 112.556 29.947000000000003 C 111.806 30.111000000000004 111.149 30.363000000000003 110.585 30.704000000000004 L 111.14099999999999 32.041000000000004 C 111.35 31.922000000000004 111.591 31.815000000000005 111.86599999999999 31.719000000000005 C 112.13899999999998 31.622000000000003 112.42999999999998 31.541000000000004 112.73399999999998 31.474000000000004 C 113.03799999999998 31.407000000000004 113.33599999999998 31.354000000000003 113.62499999999999 31.319000000000003 C 113.91499999999999 31.282000000000004 114.18599999999999 31.263 114.43799999999999 31.263 C 115.29799999999999 31.263 115.89299999999999 31.426000000000002 116.219 31.752000000000002 C 116.54499999999999 32.079 116.70899999999999 32.650000000000006 116.70899999999999 33.466 C 116.70899999999999 33.823 116.68599999999999 34.223 116.642 34.668 C 116.43299999999999 34.638999999999996 116.22999999999999 34.624 116.03 34.624 C 115.82900000000001 34.624 115.624 34.624 115.417 34.624 C 114.393 34.624 113.421 34.68 112.5 34.791000000000004 C 111.579 34.903000000000006 110.867 35.306000000000004 110.362 36.00300000000001 C 109.857 36.702000000000005 109.60499999999999 37.37700000000001 109.60499999999999 38.03000000000001 C 109.60499999999999 38.519000000000005 109.68999999999998 38.95700000000001 109.86099999999999 39.34300000000001 C 110.02999999999999 39.73000000000001 110.26599999999999 40.06000000000001 110.56099999999999 40.33400000000001 C 110.85799999999999 40.60900000000001 111.211 40.82000000000001 111.619 40.96800000000001 C 112.027 41.116000000000014 112.468 41.19100000000001 112.943 41.19100000000001 C 113.41799999999999 41.19100000000001 113.893 41.13800000000001 114.369 41.03500000000001 C 114.844 40.93200000000001 115.223 40.80100000000001 115.505 40.64600000000001 C 115.786 40.49000000000001 116.02799999999999 40.31100000000001 116.228 40.11100000000001 C 116.42699999999999 39.91100000000001 116.595 39.70700000000001 116.729 39.49900000000001 L 116.841 39.49900000000001 C 117.15299999999999 40.537000000000006 117.53899999999999 41.05700000000001 117.99799999999999 41.05700000000001 L 119.579 41.05700000000001 C 119.134 40.687 118.812 40.245 118.61 39.732 z M 116.295 38.475 C 116.14 38.683 115.943 38.872 115.706 39.042 C 115.46900000000001 39.212 115.135 39.354 114.70400000000001 39.465 C 114.27300000000001 39.577000000000005 113.85000000000001 39.632000000000005 113.435 39.632000000000005 C 112.85600000000001 39.632000000000005 112.381 39.465 112.011 39.13100000000001 C 111.639 38.79600000000001 111.45299999999999 38.370000000000005 111.45299999999999 37.851000000000006 C 111.45299999999999 37.480000000000004 111.59799999999998 37.102000000000004 111.88799999999999 36.715 C 112.178 36.329 112.66199999999999 36.11000000000001 113.34599999999999 36.059000000000005 C 114.02799999999999 36.00600000000001 114.704 35.981 115.371 35.981 C 115.58 35.981 115.78999999999999 35.985 116.006 35.992000000000004 C 116.22 35.999 116.433 36.011 116.64 36.025000000000006 L 116.64 37.874 L 116.641 37.874 C 116.565 38.067 116.452 38.268 116.295 38.475 z" stroke-linecap="round" />
</g>
<g transform="matrix(3.66 0 0 3.66 195.57 34.37)" id="B5OJu87hceF6iDX5kRva6"  >
<path style="stroke: none; stroke-width: 1; stroke-dasharray: none; stroke-linecap: butt; stroke-dashoffset: 0; stroke-linejoin: miter; stroke-miterlimit: 4; fill: rgb(255,255,255); fill-rule: nonzero; opacity: 1;" vector-effect="non-scaling-stroke"  transform=" translate(-129.39, -33.35)" d="M 133.87 37.184 L 133.87 25.427 L 132.089 25.427 L 132.089 30.058 C 131.718 29.926 131.373 29.828 131.054 29.769 C 130.734 29.709999999999997 130.3 29.679 129.751 29.679 C 128.179 29.679 126.94200000000001 30.173 126.04400000000001 31.159 C 125.14500000000001 32.147 124.69800000000001 33.591 124.69800000000001 35.489 C 124.69800000000001 37.479 125.058 38.940999999999995 125.777 39.876 C 126.498 40.811 127.599 41.278999999999996 129.083 41.278999999999996 C 129.84 41.278999999999996 130.499 41.108999999999995 131.064 40.766999999999996 C 131.628 40.425999999999995 132.058 39.995999999999995 132.355 39.474999999999994 L 132.445 39.474999999999994 L 132.89 41.056 L 134.09199999999998 41.056 C 133.97199999999998 40.464 133.90499999999997 39.858 133.892 39.242 C 133.877 38.627 133.87 37.94 133.87 37.184 z M 132.09 37.34 L 132.089 37.34 L 132.089 37.34 C 131.925 38.141000000000005 131.62199999999999 38.73800000000001 131.177 39.132000000000005 C 130.732 39.525000000000006 130.131 39.721000000000004 129.374 39.721000000000004 C 128.853 39.721000000000004 128.412 39.614000000000004 128.049 39.399 C 127.686 39.183 127.393 38.891 127.17 38.519 C 126.947 38.15 126.787 37.704 126.69200000000001 37.184 C 126.59500000000001 36.663 126.54700000000001 36.099999999999994 126.54700000000001 35.489999999999995 C 126.54700000000001 34.00599999999999 126.83600000000001 32.925999999999995 127.415 32.251 C 127.995 31.575999999999997 128.797 31.238999999999997 129.82 31.238999999999997 C 130.385 31.238999999999997 130.837 31.284 131.179 31.371999999999996 C 131.52 31.460999999999995 131.826 31.609999999999996 132.091 31.816999999999997 L 132.091 37.34 z" stroke-linecap="round" />
</g>
<g transform="matrix(3.66 0 0 3.66 233.79 42.07)" id="T7HPkfspZ5je4HsArGwuE"  >
<path style="stroke: none; stroke-width: 1; stroke-dasharray: none; stroke-linecap: butt; stroke-dashoffset: 0; stroke-linejoin: miter; stroke-miterlimit: 4; fill: rgb(255,255,255); fill-rule: nonzero; opacity: 1;" vector-effect="non-scaling-stroke"  transform=" translate(-139.84, -35.45)" d="M 143.539 31.206 C 143.13899999999998 30.694 142.63 30.301 142.015 30.025 C 141.39899999999997 29.750999999999998 140.67499999999998 29.613 139.844 29.613 C 138.272 29.613 137.065 30.114 136.226 31.116 C 135.388 32.118 134.969 33.561 134.969 35.446 C 134.969 36.323 135.066 37.119 135.25799999999998 37.839 C 135.451 38.559 135.748 39.175 136.14999999999998 39.687 C 136.55199999999996 40.199999999999996 137.05899999999997 40.592 137.67399999999998 40.867 C 138.29 41.141 139.01399999999998 41.278999999999996 139.84399999999997 41.278999999999996 C 141.41699999999997 41.278999999999996 142.62299999999996 40.778 143.46099999999996 39.776999999999994 C 144.29999999999995 38.77499999999999 144.71999999999994 37.331999999999994 144.71999999999994 35.446999999999996 C 144.71999999999994 34.571 144.62199999999993 33.772999999999996 144.42999999999995 33.053999999999995 C 144.236 32.333 143.94 31.718 143.539 31.206 z M 139.843 39.721 C 139.29399999999998 39.721 138.827 39.602 138.44 39.364999999999995 C 138.054 39.12799999999999 137.742 38.815999999999995 137.505 38.428999999999995 C 137.268 38.044 137.094 37.59199999999999 136.982 37.071 C 136.87 36.550999999999995 136.815 36.010999999999996 136.815 35.446 C 136.815 32.582 137.825 31.156 139.84199999999998 31.171 C 140.391 31.171 140.85899999999998 31.285999999999998 141.24599999999998 31.516 C 141.63299999999998 31.747 141.944 32.053999999999995 142.17999999999998 32.439 C 142.41799999999998 32.825 142.59199999999998 33.277 142.70299999999997 33.798 C 142.81399999999996 34.317 142.86999999999998 34.866 142.86999999999998 35.446000000000005 C 142.871 38.311 141.862 39.737 139.843 39.721 z" stroke-linecap="round" />
</g>
<g transform="matrix(3.66 0 0 3.66 329.97 10.26)" id="BSEs66ukWOOK2L5Ut56vC"  >
<path style="stroke: none; stroke-width: 1; stroke-dasharray: none; stroke-linecap: butt; stroke-dashoffset: 0; stroke-linejoin: miter; stroke-miterlimit: 4; fill: rgb(255,255,255); fill-rule: nonzero; opacity: 1;" vector-effect="non-scaling-stroke"  transform=" translate(-166.12, -26.76)" d="M 168.169 25.171 L 166.01000000000002 25.171 L 164.074 28.355 L 165.454 28.355 z" stroke-linecap="round" />
</g>
<g transform="matrix(3.66 0 0 3.66 326.75 41.22)" id="QU-B-Ag8DUNaY4qRjtrpe"  >
<path style="stroke: none; stroke-width: 1; stroke-dasharray: none; stroke-linecap: butt; stroke-dashoffset: 0; stroke-linejoin: miter; stroke-miterlimit: 4; fill: rgb(255,255,255); fill-rule: nonzero; opacity: 1;" vector-effect="non-scaling-stroke"  transform=" translate(-165.24, -35.22)" d="M 165.32 29.602 C 162.358 29.602 159.976 31.717 159.976 35.301 C 159.976 38.708 162.246 40.844 165.141 40.844 C 167.72299999999998 40.844 170.506 39.108000000000004 170.506 35.122 C 170.507 31.851 168.414 29.602 165.32 29.602 z M 165.231 39.375 C 163.316 39.375 161.98 37.595 161.98 35.234 C 161.98 33.208 162.982 31.071 165.27599999999998 31.071 C 167.59199999999998 31.071 168.505 33.365 168.505 35.19 C 168.504 37.617 167.101 39.375 165.231 39.375 z" stroke-linecap="round" />
</g>
<g transform="matrix(3.66 0 0 3.66 367.12 32.44)" id="QydflMVHvS1-d1IShtPRx"  >
<path style="stroke: none; stroke-width: 1; stroke-dasharray: none; stroke-linecap: butt; stroke-dashoffset: 0; stroke-linejoin: miter; stroke-miterlimit: 4; fill: rgb(255,255,255); fill-rule: nonzero; opacity: 1;" vector-effect="non-scaling-stroke"  transform=" translate(-176.27, -32.82)" d="M 181.261 24.793 L 179.323 24.793 L 179.323 31.227999999999998 L 179.279 31.227999999999998 C 178.789 30.381999999999998 177.698 29.602999999999998 176.029 29.602999999999998 C 173.424 29.602999999999998 171.17499999999998 31.784999999999997 171.198 35.369 C 171.198 38.642 173.22400000000002 40.846000000000004 175.828 40.846000000000004 C 177.587 40.846000000000004 178.87800000000001 39.934000000000005 179.457 38.731 L 179.525 38.731 L 179.614 40.602000000000004 L 181.35 40.602000000000004 C 181.30599999999998 39.867000000000004 181.261 38.776 181.261 37.819 L 181.261 24.793 z M 179.324 36.082 C 179.324 36.393 179.30200000000002 36.661 179.235 36.928 C 178.87800000000001 38.373999999999995 177.67700000000002 39.266 176.363 39.266 C 174.27 39.266 173.179 37.461999999999996 173.179 35.28 C 173.179 32.92 174.381 31.139000000000003 176.40800000000002 31.139000000000003 C 177.877 31.139000000000003 178.94600000000003 32.163000000000004 179.235 33.387 C 179.30200000000002 33.632 179.324 33.966 179.324 34.211 L 179.324 36.082 z" stroke-linecap="round" />
</g>
<g transform="matrix(3.66 0 0 3.66 424.88 49.31)" id="wdUbG9bGOuo3bwLwWQykS"  >
<path style="stroke: none; stroke-width: 1; stroke-dasharray: none; stroke-linecap: butt; stroke-dashoffset: 0; stroke-linejoin: miter; stroke-miterlimit: 4; fill: rgb(255,255,255); fill-rule: nonzero; opacity: 1;" vector-effect="non-scaling-stroke"  transform=" translate(-192.05, -37.43)" d="M 195.29 31.451 L 195.245 31.451 C 194.756 30.559 193.754 29.603 191.883 29.603 C 189.39000000000001 29.603 187.007 31.652 187.007 35.302 C 187.007 38.285 188.922 40.557 191.594 40.557 C 193.26399999999998 40.557 194.444 39.755 195.023 38.753 L 195.067 38.753 L 195.067 39.933 C 195.067 42.671 193.598 43.717 191.595 43.717 C 190.259 43.717 189.145 43.317 188.433 42.849 L 187.94199999999998 44.363 C 188.81099999999998 44.942 190.236 45.254 191.528 45.254 C 192.886 45.254 194.39999999999998 44.919 195.469 43.963 C 196.493 43.005 197.005 41.513 197.005 39.021 L 197.005 32.764 C 197.005 31.473000000000003 197.027 30.582000000000004 197.094 29.825000000000003 L 195.358 29.825000000000003 L 195.29 31.451 z M 195.045 36.014 C 195.045 36.349000000000004 195 36.727000000000004 194.89 37.061 C 194.488 38.307 193.398 39.064 192.17299999999997 39.064 C 190.07999999999998 39.064 188.98899999999998 37.306 188.98899999999998 35.19 C 188.98899999999998 32.696999999999996 190.325 31.115 192.19499999999996 31.115 C 193.64199999999997 31.115 194.57799999999997 32.051 194.93299999999996 33.208 C 195.02299999999997 33.452999999999996 195.04499999999996 33.742999999999995 195.04499999999996 34.077 L 195.04499999999996 36.014 z" stroke-linecap="round" />
</g>
<g transform="matrix(3.66 0 0 3.66 466.78 41.22)" id="jENOLj7nXcCUrXhyh-rk1"  >
<path style="stroke: none; stroke-width: 1; stroke-dasharray: none; stroke-linecap: butt; stroke-dashoffset: 0; stroke-linejoin: miter; stroke-miterlimit: 4; fill: rgb(255,255,255); fill-rule: nonzero; opacity: 1;" vector-effect="non-scaling-stroke"  transform=" translate(-203.5, -35.22)" d="M 203.582 29.602 C 200.62 29.602 198.239 31.717 198.239 35.301 C 198.239 38.708 200.50900000000001 40.844 203.404 40.844 C 205.986 40.844 208.769 39.108000000000004 208.769 35.122 C 208.769 31.851 206.676 29.602 203.582 29.602 z M 203.493 39.375 C 201.578 39.375 200.243 37.595 200.243 35.234 C 200.243 33.208 201.245 31.071 203.53799999999998 31.071 C 205.85299999999998 31.071 206.767 33.365 206.767 35.19 C 206.766 37.617 205.363 39.375 203.493 39.375 z" stroke-linecap="round" />
</g>
<g transform="matrix(3.66 0 0 3.66 396.07 10.33)" id="KCyunrZUVYWhpmvaeE72g"  >
<path style="stroke: none; stroke-width: 1; stroke-dasharray: none; stroke-linecap: butt; stroke-dashoffset: 0; stroke-linejoin: miter; stroke-miterlimit: 4; fill: rgb(255,255,255); fill-rule: nonzero; opacity: 1;" vector-effect="non-scaling-stroke"  transform=" translate(-184.18, -26.78)" d="M 184.186 25.572 C 183.452 25.572 182.96200000000002 26.128999999999998 182.96200000000002 26.796 C 182.96200000000002 27.464 183.42900000000003 27.997999999999998 184.14100000000002 27.997999999999998 C 184.92100000000002 27.997999999999998 185.38800000000003 27.464 185.38800000000003 26.796 C 185.389 26.107 184.899 25.572 184.186 25.572 z" stroke-linecap="round" />
</g>
<g transform="matrix(3.66 0 0 3.66 396.11 41.18)" id="7c6aF2cBZjzYUZqiX6az_"  >
<path style="stroke: none; stroke-width: 1; stroke-dasharray: none; stroke-linecap: butt; stroke-dashoffset: 0; stroke-linejoin: miter; stroke-miterlimit: 4; fill: rgb(255,255,255); fill-rule: nonzero; opacity: 1;" vector-effect="non-scaling-stroke"  transform=" translate(-0.98, -5.39)" d="M 0 10.777 L 0 0 L 1.959 0 L 1.959 10.777 z" stroke-linecap="round" />
</g>
</svg>